<?xml version="1.0" standalone="no"?>
<!DOCTYPE svg PUBLIC "-//W3C//DTD SVG 20010904//EN"
 "http://www.w3.org/TR/2001/REC-SVG-20010904/DTD/svg10.dtd">
<svg version="1.0" xmlns="http://www.w3.org/2000/svg"
 width="624.000000pt" height="624.000000pt" viewBox="0 0 624.000000 624.000000"
 preserveAspectRatio="xMidYMid meet">
<metadata>
Created by potrace 1.14, written by Peter Selinger 2001-2017
</metadata>
<g transform="translate(0.000000,624.000000) scale(0.100000,-0.100000)"
fill="#000000" stroke="none">
<path d="M3875 6146 l-40 -13 33 -5 c18 -2 35 -1 38 4 3 5 11 2 18 -7 6 -9 18
-17 26 -18 8 -2 21 -6 28 -10 6 -5 12 -4 12 2 0 5 -12 14 -27 19 -27 10 -27
10 12 11 28 1 36 4 28 12 -17 17 -84 19 -128 5z"/>
<path d="M3647 6132 c-9 -2 -15 -8 -12 -13 4 -5 -1 -9 -10 -9 -9 0 -13 5 -10
10 8 13 -17 13 -52 -1 -15 -6 -84 -24 -153 -39 -198 -44 -296 -75 -358 -113
-31 -19 -82 -47 -112 -62 -30 -15 -76 -47 -101 -70 -25 -24 -61 -51 -80 -60
-19 -10 -59 -35 -89 -55 -30 -21 -84 -54 -120 -73 -36 -19 -97 -59 -137 -89
-40 -29 -86 -61 -104 -71 -17 -9 -33 -26 -36 -37 -3 -11 -16 -23 -29 -26 -13
-3 -24 -10 -24 -16 0 -5 -4 -6 -10 -3 -5 3 -31 -10 -56 -29 -26 -20 -51 -36
-56 -36 -5 0 -17 -17 -26 -37 -42 -92 -99 -180 -149 -228 -29 -29 -53 -61 -53
-71 0 -10 -11 -29 -24 -43 -32 -34 -45 -81 -22 -81 19 0 19 1 5 -58 -7 -26
-22 -61 -35 -79 -28 -37 -30 -45 -8 -36 12 4 15 2 12 -8 -3 -8 -14 -13 -26
-12 -26 3 -35 -10 -56 -82 -25 -86 -38 -119 -53 -130 -7 -5 -17 -32 -24 -60
-6 -27 -21 -75 -32 -105 -12 -30 -22 -73 -23 -95 -5 -89 -18 -141 -44 -178
-18 -25 -30 -34 -33 -25 -3 7 -6 3 -6 -9 -1 -12 10 -29 24 -40 l24 -18 -17
-85 c-17 -84 -18 -85 -49 -88 -49 -5 -60 -26 -30 -55 14 -13 23 -28 19 -34 -4
-6 -34 -15 -67 -21 -247 -41 -510 -132 -563 -194 -12 -15 -38 -37 -57 -48 -20
-12 -35 -30 -35 -40 0 -10 -5 -22 -12 -26 -8 -5 -9 -2 -5 9 8 22 5 21 -22 -2
-13 -11 -20 -25 -16 -31 10 -17 -23 -60 -56 -72 -16 -5 -29 -14 -29 -18 0 -4
-7 -11 -16 -14 -13 -5 -15 -2 -11 14 3 11 1 20 -4 20 -8 0 -13 -15 -10 -32 1
-11 -31 -48 -42 -48 -5 0 -27 -15 -50 -34 -23 -19 -46 -35 -52 -36 -5 0 -10
-10 -9 -21 0 -11 -21 -43 -47 -72 -27 -29 -49 -57 -49 -63 0 -5 -8 -19 -18
-30 -29 -32 -71 -121 -98 -205 -26 -84 -44 -103 -102 -115 -18 -4 -32 -10 -32
-15 0 -4 -16 -13 -35 -20 -30 -11 -35 -17 -35 -46 0 -23 5 -33 15 -33 8 0 15
-4 15 -9 0 -5 -7 -16 -15 -25 -13 -13 -15 -164 -15 -1235 l0 -1221 2276 0
2277 0 -7 93 c-9 117 -21 171 -62 278 -19 48 -34 93 -34 100 0 8 -13 39 -29
69 -15 30 -31 68 -35 83 -8 33 -80 108 -127 132 -54 28 -281 176 -311 204 -33
29 -34 46 -9 103 11 24 33 73 49 110 17 37 48 91 70 120 22 29 49 72 60 94 23
46 62 69 132 80 29 5 56 18 79 40 35 31 35 33 25 73 -6 23 -8 41 -4 41 4 0 7
20 7 45 0 25 -4 45 -8 45 -5 0 -9 6 -9 14 0 8 -7 16 -15 20 -10 4 -15 -1 -16
-17 -1 -18 -2 -19 -6 -4 -5 18 -5 18 -19 0 -12 -16 -13 -15 -14 14 0 41 29 76
88 105 39 18 43 23 28 33 -9 7 -16 17 -16 24 0 6 -6 11 -13 11 -7 0 -40 30
-72 67 -33 36 -68 73 -78 82 -50 43 -61 51 -71 51 -15 1 -156 135 -156 149 0
6 -5 11 -11 11 -5 0 -8 4 -4 10 3 5 -2 17 -12 27 -10 10 -18 32 -18 49 -1 30
0 31 35 23 37 -9 158 7 174 22 13 12 -20 12 -62 0 -27 -8 -41 -5 -83 15 -28
14 -56 23 -63 21 -16 -6 -17 46 -2 60 5 4 6 3 2 -4 -5 -9 -2 -11 8 -7 9 3 16
10 16 14 0 21 -101 33 -134 17 -18 -9 -18 -11 8 -24 15 -8 26 -17 23 -20 -16
-16 -156 97 -182 148 -8 15 -15 41 -15 56 0 36 28 115 43 125 9 6 9 12 -1 28
-11 18 -10 20 12 20 15 0 30 10 42 28 40 60 188 195 241 218 56 25 66 25 160
-2 69 -21 83 -37 54 -67 -11 -13 -21 -28 -21 -34 0 -29 -135 3 -202 49 -14 10
-30 18 -35 18 -4 0 -32 -25 -61 -55 l-54 -55 29 -28 c16 -16 39 -32 51 -36 12
-4 22 -12 22 -17 0 -6 8 -8 18 -5 9 3 34 2 54 -3 24 -6 40 -5 47 2 8 8 11 8
11 -1 0 -19 17 -14 23 7 4 19 8 19 50 6 45 -13 92 -10 82 5 -8 13 6 40 21 40
8 0 13 -3 13 -7 -4 -22 3 -32 24 -39 12 -5 25 -7 29 -6 48 12 78 9 91 -11 17
-27 14 -57 -9 -74 -10 -7 -13 -13 -6 -13 18 0 3 -26 -20 -37 -20 -8 -20 -10
-4 -16 9 -4 15 -3 12 2 -3 4 5 13 18 19 18 8 23 7 23 -4 0 -7 -4 -11 -9 -8 -4
3 -5 -2 -2 -10 4 -12 11 -13 24 -6 19 10 30 4 30 -16 0 -7 -16 -16 -35 -20
-19 -3 -32 -10 -29 -15 6 -11 -60 -75 -99 -96 -28 -14 -55 -34 -85 -63 -26
-25 12 -26 51 -1 17 11 53 31 79 45 27 14 58 34 69 45 12 11 26 18 31 15 11
-7 -110 -93 -190 -136 -128 -69 -85 -77 48 -9 45 23 118 69 162 102 110 83
122 87 156 62 29 -22 33 -53 17 -123 -8 -32 -7 -34 8 -21 15 12 17 11 17 -4 0
-17 35 -55 51 -55 5 0 6 6 3 14 -3 9 4 15 20 18 14 3 26 1 26 -3 0 -14 43 -10
64 6 28 21 37 19 74 -16 l33 -31 -2 39 c-3 51 -17 82 -55 119 -44 44 -50 68
-20 82 31 14 244 -38 298 -73 51 -34 83 -106 66 -147 -7 -15 -18 -26 -24 -24
-14 5 -130 -112 -120 -121 3 -3 6 -1 6 5 0 7 7 12 15 12 8 0 15 4 15 9 0 5 7
12 16 15 13 5 15 1 9 -21 l-6 -28 23 23 c21 22 22 24 6 36 -16 12 -16 14 5 34
31 29 46 28 19 -1 -25 -27 -19 -41 10 -26 11 6 22 9 24 6 6 -6 -131 -138 -199
-189 -58 -46 -71 -57 -61 -58 17 0 116 71 203 146 20 17 46 39 59 50 13 10 35
29 48 41 14 13 33 23 42 23 25 0 92 71 92 97 0 20 -41 79 -114 164 -75 87 -71
75 -42 138 30 65 44 131 28 131 -6 0 -20 -9 -30 -20 -11 -12 -26 -18 -34 -15
-9 4 -24 -2 -33 -12 -13 -12 -20 -14 -22 -6 -3 7 -10 10 -17 7 -7 -3 -42 0
-77 7 -35 6 -73 11 -84 11 -39 0 -120 -25 -128 -38 -4 -8 -19 -14 -33 -14 -14
0 -40 -12 -59 -26 l-33 -25 -39 24 c-43 27 -103 90 -103 108 0 8 13 10 40 6
34 -4 39 -3 30 8 -9 11 -5 15 23 20 39 8 47 35 9 35 -19 0 -23 4 -19 20 3 11
1 18 -4 14 -14 -8 -10 20 6 42 21 28 18 35 -9 28 -23 -5 -25 -3 -28 33 -2 22
-8 37 -15 36 -6 -1 -17 11 -24 27 -8 16 -23 33 -36 39 -12 6 -25 22 -29 36 -4
17 -11 24 -20 21 -8 -3 -14 -1 -14 3 0 5 -24 23 -54 39 -29 17 -56 38 -59 46
-4 9 -12 16 -18 16 -8 0 -8 -4 1 -15 24 -29 0 -14 -35 22 -19 20 -35 42 -35
50 0 7 -7 13 -16 13 -8 0 -12 5 -9 10 6 10 -5 13 -42 11 -11 -1 -25 3 -29 10
-5 9 -2 10 12 5 18 -7 18 -6 -1 12 -11 10 -26 17 -32 14 -7 -2 -13 1 -13 6 0
6 9 14 21 17 25 8 23 10 -23 30 -33 13 -38 13 -53 -2 -14 -14 -18 -14 -26 -2
-5 8 -9 10 -9 5 0 -6 -5 -5 -12 2 -14 14 -32 16 -24 3 9 -14 -53 -3 -77 14
-12 9 -39 20 -60 26 -29 8 -37 14 -33 26 5 12 1 14 -14 10 -11 -3 -23 -1 -26
4 -3 5 -15 9 -27 9 -21 -1 -21 -2 6 -25 15 -13 27 -27 27 -30 0 -13 -24 -3
-41 17 -20 22 -26 14 -9 -12 6 -9 5 -17 -2 -21 -7 -4 -7 -13 1 -28 14 -26 5
-27 -23 -3 -17 15 -16 12 4 -17 19 -27 20 -35 9 -42 -9 -5 -22 0 -39 15 -14
12 -34 29 -44 37 -76 55 -356 353 -382 405 l-20 41 31 32 c28 28 64 44 51 22
-4 -5 13 0 36 11 23 11 55 21 70 22 15 0 28 3 28 7 0 3 7 6 15 6 8 0 15 -4 15
-8 0 -11 26 -5 44 10 8 7 20 10 26 6 6 -3 10 3 10 17 0 13 4 18 8 13 9 -13 22
-13 47 2 18 11 18 12 3 13 -10 0 -18 4 -18 10 0 5 21 7 50 3 34 -4 50 -2 50 6
0 6 -11 11 -24 11 -13 0 -27 6 -29 13 -4 9 -8 9 -15 -2 -7 -9 -12 -10 -16 -2
-4 6 -11 9 -15 6 -12 -7 -101 25 -101 36 0 5 14 6 30 3 22 -5 30 -3 30 7 0 9
3 10 8 4 4 -5 17 -16 29 -22 18 -10 21 -10 18 0 -4 9 12 12 60 11 36 -1 68 3
71 8 3 4 16 5 29 2 31 -8 65 4 65 21 0 8 8 19 18 25 14 9 13 10 -7 4 -17 -4
-22 -2 -19 7 3 8 14 15 26 17 26 4 29 19 5 25 -14 4 -13 5 4 6 12 0 24 9 26
19 4 16 5 16 6 0 0 -10 6 -18 12 -18 5 0 7 5 4 10 -3 6 0 13 9 16 8 3 12 12 9
20 -3 8 0 14 7 14 7 0 10 6 7 14 -3 7 5 23 19 35 13 11 24 26 24 31 0 7 6 8
19 0 16 -8 23 -6 35 12 8 12 12 26 9 31 -3 6 -1 7 5 3 7 -4 14 3 18 18 6 26
34 39 55 25 15 -9 39 7 39 26 0 7 7 19 16 26 9 7 20 24 25 37 5 14 12 22 15
19 4 -4 -16 -56 -33 -88 -2 -3 26 -9 62 -13 35 -4 73 -9 82 -12 10 -2 3 3 -14
12 -18 10 -33 21 -33 26 0 12 52 10 103 -6 25 -7 48 -11 51 -8 4 3 6 -2 6 -11
0 -9 9 -21 20 -27 16 -9 22 -8 27 6 5 14 8 15 17 3 6 -8 24 -23 40 -33 29 -18
30 -18 44 0 12 16 14 16 9 2 -4 -12 5 -26 31 -46 36 -29 42 -32 62 -32 6 0 15
-11 20 -25 8 -22 12 -24 29 -13 25 15 51 -4 44 -32 -3 -11 0 -20 6 -20 6 0 11
7 11 15 0 12 3 12 18 -2 35 -33 62 -53 62 -45 1 4 10 -4 20 -17 12 -14 20 -18
20 -10 0 8 9 -1 20 -19 11 -18 35 -39 53 -47 18 -7 50 -29 70 -49 21 -20 44
-36 52 -36 7 0 12 -8 11 -17 0 -10 5 -17 12 -15 6 1 12 -2 12 -8 0 -6 6 -9 12
-8 7 2 19 -12 27 -29 14 -31 41 -46 41 -23 0 6 6 10 14 10 17 0 29 -27 16 -35
-16 -10 -11 -28 5 -21 8 3 14 0 12 -6 -4 -21 24 -20 30 2 4 16 8 18 14 8 7
-10 9 -9 9 5 0 10 -7 20 -15 23 -8 4 -15 10 -15 15 0 4 8 5 17 2 12 -5 15 -2
10 10 -3 9 -2 19 2 22 5 3 7 14 4 25 -3 11 0 20 6 20 6 0 11 -16 11 -35 0 -25
4 -35 16 -35 12 0 15 6 10 24 -5 20 7 36 28 36 6 0 -1 -57 -8 -68 -4 -7 -2
-12 5 -12 7 0 9 -10 6 -26 -5 -27 11 -84 27 -96 16 -11 19 -127 6 -202 -18
-101 -19 -108 -26 -138 -7 -36 16 -29 33 10 13 27 75 109 114 148 12 12 19 27
15 32 -3 6 3 17 15 26 15 10 20 21 16 35 -5 22 7 29 18 11 10 -17 20 -11 31
18 10 27 3 64 -18 106 -8 14 -6 21 6 28 20 11 20 48 1 153 -8 44 -15 87 -15
95 -1 9 -5 6 -10 -7 -14 -35 -35 -28 -36 12 0 34 9 45 21 25 3 -5 11 -10 17
-10 14 0 3 101 -13 111 -8 4 -10 25 -7 58 3 28 2 48 -2 46 -4 -2 -7 16 -7 40
0 65 -25 80 -27 17 -1 -16 -6 -29 -12 -29 -7 0 -9 16 -6 45 3 30 1 43 -6 38
-6 -3 -13 0 -15 6 -3 8 -6 6 -6 -4 -1 -10 -5 -18 -11 -18 -5 0 -10 8 -10 18
-1 30 -30 -18 -30 -49 0 -30 16 -80 29 -89 7 -5 41 -110 45 -140 1 -9 5 -21
10 -28 4 -7 1 -19 -8 -27 -16 -17 -20 -13 -30 29 -6 23 -9 27 -17 15 -5 -7 -9
-24 -9 -36 0 -12 -6 -24 -12 -26 -10 -4 -10 -6 0 -6 8 -1 12 -19 12 -58 0 -41
-3 -54 -10 -43 -5 8 -10 25 -10 36 0 12 -9 50 -20 85 -11 35 -18 70 -14 79 4
10 10 3 19 -25 12 -37 13 -38 13 -10 -1 46 -8 67 -23 61 -22 -8 -25 129 -4
179 9 22 19 62 23 90 5 27 15 66 23 87 29 73 -2 215 -54 254 -11 7 -13 13 -5
18 6 4 9 13 5 21 -8 21 -24 19 -16 -2 5 -14 3 -15 -6 -7 -10 9 -10 17 -2 33
10 19 8 24 -9 23 -3 0 -11 6 -18 14 -7 8 -10 14 -6 14 3 0 -4 9 -17 21 -15 12
-20 22 -12 25 7 3 3 20 -14 50 -19 33 -21 43 -9 38 9 -3 16 -10 16 -14 0 -5 9
-6 20 -3 21 6 22 30 1 25 -6 -1 -10 1 -9 5 2 5 -8 26 -21 47 -24 39 -25 39
-35 16 -8 -17 -7 -25 1 -27 8 -3 9 -12 4 -27 -5 -12 -7 -35 -5 -52 2 -16 1
-21 -2 -12 -3 9 -13 20 -23 23 -12 4 -17 13 -14 28 7 34 -45 86 -60 60 -2 -5
-3 -3 -1 3 1 7 -8 22 -22 35 -26 24 -34 50 -9 29 12 -10 14 -4 10 50 -3 53 -2
61 13 58 9 -2 17 -10 17 -18 0 -8 4 -21 8 -27 5 -9 3 -11 -6 -7 -11 4 -13 -2
-10 -23 9 -61 13 -71 32 -76 18 -4 19 -1 14 47 -3 28 -10 56 -15 63 -5 7 -4
13 3 15 8 3 7 9 -4 20 -10 9 -14 24 -10 37 4 15 -2 30 -18 47 -13 14 -35 46
-49 72 -27 50 -93 95 -188 126 -27 9 -70 30 -96 46 -58 37 -96 48 -96 27 0 -8
11 -18 25 -21 14 -4 25 -13 25 -20 0 -8 6 -17 13 -19 10 -4 10 -6 0 -6 -7 -1
-13 -8 -13 -17 0 -10 6 -14 14 -11 8 3 16 -2 19 -15 3 -11 10 -17 16 -14 5 4
12 2 15 -3 3 -5 -3 -11 -13 -14 -12 -3 -22 1 -25 10 -3 8 -10 12 -15 9 -4 -3
-22 8 -40 24 -17 17 -25 30 -18 31 6 0 2 5 -10 11 -24 12 -41 53 -18 44 9 -3
12 0 8 10 -3 7 -14 14 -24 14 -10 0 -17 6 -15 13 2 6 -25 38 -59 70 -56 52
-70 60 -130 72 -37 8 -102 31 -144 52 -42 21 -79 37 -83 35 -5 -1 -8 5 -8 13
0 18 -16 20 -23 3 -4 -8 -6 -7 -6 3 -1 20 -21 29 -64 29 -18 1 -78 9 -134 18
-96 17 -101 17 -100 0 1 -9 4 -15 8 -12 4 2 9 -2 12 -10 3 -7 16 -13 29 -13
32 0 148 -56 126 -61 -9 -2 -26 2 -37 7 -16 9 -22 8 -29 -6 -9 -15 -16 -14
-86 9 -42 14 -78 22 -81 19 -11 -11 -34 -9 -39 4 -5 14 -76 29 -128 28 -15 0
-25 3 -23 7 3 4 -2 13 -10 20 -8 7 -15 9 -15 4 0 -5 -7 -1 -14 9 -13 16 -39
19 -89 9z m210 -128 c-3 -3 -12 -4 -19 -1 -8 3 -5 6 6 6 11 1 17 -2 13 -5z
m348 -4 c-3 -5 -11 -10 -16 -10 -6 0 -7 5 -4 10 3 6 11 10 16 10 6 0 7 -4 4
-10z m35 0 c0 -5 -5 -10 -11 -10 -5 0 -7 5 -4 10 3 6 8 10 11 10 2 0 4 -4 4
-10z m97 -36 c-3 -3 -12 -4 -19 -1 -8 3 -5 6 6 6 11 1 17 -2 13 -5z m103 -44
c0 -5 -6 -10 -14 -10 -8 0 -18 5 -21 10 -3 6 3 10 14 10 12 0 21 -4 21 -10z
m80 -44 c0 -2 -11 -3 -25 -3 -15 0 -25 5 -25 13 0 8 -5 14 -10 14 -6 0 -5 6 2
14 11 11 17 10 35 -11 13 -13 23 -25 23 -27z m-760 0 c0 -11 -19 -15 -25 -6
-3 5 1 10 9 10 9 0 16 -2 16 -4z m217 -26 c2 0 3 -4 3 -9 0 -5 -18 -8 -40 -7
-22 0 -40 6 -40 12 0 19 11 22 43 13 18 -5 33 -9 34 -9z m-307 -20 c0 -12 22
-9 33 5 5 6 7 4 5 -4 -3 -8 -17 -19 -32 -24 -32 -11 -96 -1 -96 15 0 6 7 7 18
3 35 -15 62 -17 62 -6 0 7 -4 9 -10 6 -5 -3 -10 -1 -10 4 0 6 7 11 15 11 8 0
15 -4 15 -10z m90 -10 c31 9 68 7 133 -5 26 -5 37 -4 37 5 0 7 11 2 25 -11 25
-25 33 -49 15 -49 -5 0 -10 6 -11 13 0 10 -2 10 -6 0 -2 -7 -12 -13 -20 -13
-11 0 -14 6 -10 21 l6 21 -24 -22 c-13 -13 -25 -17 -29 -11 -4 5 1 14 10 19
11 6 -16 9 -80 8 -53 0 -96 0 -96 1 0 12 15 34 17 26 3 -8 14 -8 33 -3z m872
-18 c-7 -2 -25 -1 -40 3 -25 7 -25 8 -7 15 11 4 29 3 40 -3 13 -7 16 -12 7
-15z m76 3 c-3 -14 -1 -25 5 -25 8 0 8 -3 1 -10 -8 -8 -19 -8 -38 0 -29 11
-31 37 -2 32 9 -2 16 4 16 13 0 8 5 15 11 15 7 0 9 -10 7 -25z m-664 -7 c-4
-6 1 -17 10 -23 15 -11 14 -14 -14 -23 -28 -10 -34 -8 -31 11 0 4 -3 7 -9 7
-5 0 -10 5 -10 11 0 6 9 8 22 4 17 -6 20 -4 15 9 -4 10 -1 16 9 16 9 0 12 -5
8 -12z m-174 -48 c0 -5 -8 -10 -17 -10 -15 0 -16 2 -3 10 19 12 20 12 20 0z
m485 -10 c3 -5 1 -10 -4 -10 -6 0 -11 5 -11 10 0 6 2 10 4 10 3 0 8 -4 11 -10z
m355 0 c0 -5 -2 -10 -4 -10 -3 0 -8 5 -11 10 -3 6 -1 10 4 10 6 0 11 -4 11
-10z m-820 -15 c-7 -8 -17 -15 -22 -15 -5 0 -22 -10 -38 -22 -24 -17 -33 -19
-43 -9 -9 10 -9 11 4 6 9 -3 31 7 54 25 40 32 66 41 45 15z m847 -9 c0 -8 -6
-12 -15 -9 -11 5 -11 7 0 14 7 5 13 9 14 9 0 0 1 -6 1 -14z m-102 -6 c3 -5 -1
-10 -9 -10 -8 0 -18 5 -21 10 -3 6 1 10 9 10 8 0 18 -4 21 -10z m149 -14 c15
-13 26 -28 26 -33 0 -6 9 -13 20 -16 23 -6 27 11 5 19 -21 8 -19 23 3 20 9 -2
18 -11 20 -22 2 -10 15 -29 30 -41 30 -26 20 -30 -18 -8 -14 8 -35 14 -47 15
-13 0 -22 4 -20 9 1 5 -7 17 -19 27 -19 18 -39 54 -29 54 2 0 15 -11 29 -24z
m201 -12 c25 -22 27 -25 9 -21 -17 3 -20 1 -17 -13 3 -10 0 -21 -6 -24 -17
-11 -13 -44 7 -49 16 -4 16 -4 0 -11 -23 -10 -51 18 -54 53 -1 14 0 20 3 14 2
-7 9 -13 14 -13 4 0 5 8 2 17 -5 12 -2 15 9 11 24 -10 9 42 -16 52 -20 8 -20
9 -1 9 11 0 34 -11 50 -25z m-257 -21 c-16 -19 -23 -16 -23 11 0 19 3 21 17
12 13 -7 14 -14 6 -23z m262 -64 c0 -6 -4 -7 -10 -4 -5 3 -10 11 -10 16 0 6 5
7 10 4 6 -3 10 -11 10 -16z m-512 -16 c27 -18 57 -43 50 -43 -2 0 -21 9 -43
20 -22 11 -47 20 -57 20 -10 0 -18 5 -18 10 0 16 38 12 68 -7z m616 -27 c-6
-15 -24 -23 -24 -11 0 8 24 34 28 30 1 -1 0 -10 -4 -19z m-174 2 c3 -4 18 -9
34 -12 16 -3 32 -9 35 -14 3 -5 17 -11 31 -14 14 -3 34 -9 44 -13 14 -6 17 -5
12 3 -11 18 2 14 24 -8 10 -10 16 -21 12 -24 -13 -8 -1 -85 11 -80 7 2 26 -8
42 -22 21 -18 24 -24 10 -19 -56 20 -56 20 -43 -16 6 -19 19 -40 27 -47 14
-12 14 -13 -1 -8 -22 7 -22 3 -4 -32 12 -23 12 -29 0 -40 -8 -7 -14 -9 -15 -5
-5 47 -23 114 -32 114 -4 -1 -7 2 -8 7 -3 25 -22 42 -40 37 -10 -4 -29 1 -41
9 -12 9 -30 16 -39 16 -9 0 -22 7 -29 15 -11 13 -8 14 20 9 31 -7 32 -6 25 17
-12 37 -38 67 -60 71 -11 2 -19 10 -17 17 2 11 0 12 -11 3 -15 -13 -22 -8 -42
27 -5 9 -4 12 3 7 7 -4 12 -3 12 2 0 11 32 11 40 0z m-332 -11 c15 0 16 -13 1
-23 -6 -3 -21 4 -33 16 -20 22 -20 22 -1 15 11 -4 26 -8 33 -8z m-1013 -47
c-3 -5 -16 -10 -28 -9 -21 0 -21 1 -2 9 28 12 37 12 30 0z m1089 -6 c3 -8 2
-12 -4 -9 -6 3 -10 10 -10 16 0 14 7 11 14 -7z m146 -13 c0 -6 -5 -13 -10 -16
-6 -4 -7 -11 -4 -17 4 -6 1 -9 -5 -7 -7 3 -12 8 -12 12 1 4 1 14 1 22 0 8 7
15 15 15 8 0 15 -4 15 -9z m390 -29 c0 -13 -12 -22 -22 -16 -10 6 -1 24 13 24
5 0 9 -4 9 -8z m-1295 -42 c3 -5 1 -10 -4 -10 -6 0 -11 5 -11 10 0 6 2 10 4
10 3 0 8 -4 11 -10z m-110 -20 c3 -5 -1 -10 -10 -10 -9 0 -13 5 -10 10 3 6 8
10 10 10 2 0 7 -4 10 -10z m870 -60 c3 -5 2 -10 -4 -10 -5 0 -13 5 -16 10 -3
6 -2 10 4 10 5 0 13 -4 16 -10z m-712 -147 c-7 -2 -21 -2 -30 0 -10 3 -4 5 12
5 17 0 24 -2 18 -5z m1340 -22 c3 -14 1 -18 -9 -14 -15 6 -18 16 -7 26 9 10
10 9 16 -12z m-1320 0 c4 -1 7 -5 7 -9 0 -5 -13 -7 -30 -6 -16 1 -30 -1 -30
-5 0 -12 -76 -42 -117 -46 -21 -3 -29 -2 -18 1 11 3 30 15 43 27 20 18 22 19
22 3 0 -10 5 -14 11 -11 6 4 8 14 5 22 -3 8 -2 12 2 9 4 -2 18 2 32 9 14 8 34
12 45 10 11 -2 23 -4 28 -4z m1358 -103 c-1 -21 -7 -35 -12 -32 -11 6 -12 69
-2 115 l8 34 5 -40 c3 -22 3 -57 1 -77z m-1274 66 c-10 -10 -87 -12 -87 -2 0
6 10 8 26 4 14 -4 23 -3 20 2 -3 5 6 7 20 4 14 -2 23 -6 21 -8z m99 7 c-3 -5
-15 -7 -26 -4 -28 7 -25 13 6 13 14 0 23 -4 20 -9z m-256 -31 c-8 -5 -19 -10
-25 -10 -5 0 -3 5 5 10 8 5 20 10 25 10 6 0 3 -5 -5 -10z m1121 -23 c-10 -9
-11 -8 -5 6 3 10 9 15 12 12 3 -3 0 -11 -7 -18z m-123 -27 c-7 -10 -14 -18
-15 -16 -6 6 9 36 18 36 5 0 4 -9 -3 -20z m195 -24 c4 -10 1 -13 -9 -9 -7 3
-14 9 -14 14 0 14 17 10 23 -5z m-218 -6 c3 -5 1 -10 -4 -10 -6 0 -11 5 -11
10 0 6 2 10 4 10 3 0 8 -4 11 -10z m499 -39 c-8 -9 -34 10 -34 25 0 16 2 16
19 -2 10 -10 17 -21 15 -23z m-586 -11 c3 -7 1 -10 -4 -7 -5 3 -10 -5 -10 -16
-1 -12 -14 -53 -28 -92 -25 -67 -26 -68 -21 -25 14 110 48 187 63 140z m-561
2 c7 -5 -11 -14 -47 -23 -51 -13 -58 -13 -48 -1 22 26 71 39 95 24z m791 -14
c2 -9 11 -18 21 -20 9 -2 12 -6 6 -10 -6 -3 -26 7 -45 22 -33 27 -33 29 -11
27 13 -1 26 -9 29 -19z m-792 -83 c-23 -17 -36 -19 -36 -6 0 5 8 12 18 14 32
9 37 6 18 -8z m903 1 c7 -8 29 -22 49 -32 20 -9 32 -19 26 -21 -7 -2 -10 -13
-7 -23 6 -24 -5 -25 -33 -5 -12 8 -23 13 -25 10 -3 -2 -15 5 -29 15 -20 16
-22 20 -7 20 9 0 17 5 17 10 0 6 -4 10 -10 10 -5 0 -10 7 -10 15 0 19 14 19
29 1z m396 -6 c-3 -4 0 -11 5 -13 6 -3 5 -4 -2 -3 -7 1 -15 11 -16 21 -3 11 0
15 7 10 6 -3 9 -10 6 -15z m-460 -70 c3 -5 1 -10 -4 -10 -6 0 -11 5 -11 10 0
6 2 10 4 10 3 0 8 -4 11 -10z m-340 -72 c-1 -24 -9 -59 -18 -78 l-15 -35 -1
37 c-1 31 24 118 34 118 1 0 1 -19 0 -42z m373 7 c-3 -3 -9 2 -12 12 -6 14 -5
15 5 6 7 -7 10 -15 7 -18z m-922 -40 c-11 -8 -27 -15 -35 -15 -13 1 -12 4 3
15 11 8 27 15 35 15 13 -1 12 -4 -3 -15z m891 -73 c-3 -13 -6 -12 -14 8 -6 14
-13 39 -17 55 -6 28 -5 27 15 -8 11 -21 18 -46 16 -55z m224 -26 l1 -71 13 55
12 55 12 -30 c6 -16 19 -49 28 -72 9 -24 22 -43 29 -43 8 0 14 -5 14 -11 0 -5
5 -7 11 -4 6 4 9 1 7 -7 -1 -7 7 -28 20 -45 19 -27 48 -140 39 -149 -2 -2 -14
20 -27 49 -13 29 -25 54 -27 56 -2 2 -13 -4 -25 -15 -20 -17 -21 -18 -15 -1 4
10 3 25 -2 35 -5 9 -13 31 -18 47 -5 17 -15 29 -22 27 -8 -2 -11 3 -8 11 3 8
2 29 -2 48 -7 31 -9 28 -16 -33 -8 -74 2 -189 15 -168 4 6 5 20 3 30 -3 10 0
21 6 24 6 4 13 -5 17 -21 3 -15 8 -35 11 -43 3 -8 7 -34 9 -57 2 -23 9 -55 16
-70 23 -57 19 -80 -10 -51 -9 9 -12 5 -12 -18 -1 -27 -2 -27 -12 -9 -6 11 -17
24 -25 28 -7 4 -13 18 -13 30 0 25 -34 104 -54 127 -16 18 -36 126 -26 137 4
4 4 46 1 93 -5 61 -9 79 -14 62 -13 -36 -25 -16 -17 29 9 47 30 76 30 40 0
-12 4 -19 10 -16 6 3 10 18 10 33 1 26 1 26 15 8 10 -13 15 -45 16 -90z
m-2999 64 c10 0 36 -17 58 -38 26 -26 43 -36 52 -30 10 6 2 17 -27 43 l-40 34
29 1 c17 0 45 -13 70 -32 22 -17 42 -33 44 -34 2 -1 5 -9 6 -18 1 -8 10 -24
21 -36 22 -24 18 -30 -25 -35 -24 -3 -41 3 -69 25 -20 16 -49 31 -64 34 -16 3
-44 10 -62 16 -41 13 -115 -3 -115 -25 0 -18 -34 -37 -54 -29 -24 9 -28 35 -7
41 11 3 18 10 15 17 -2 6 19 26 48 43 64 38 80 43 93 32 5 -5 17 -9 27 -9z
m1849 -13 c-10 -9 -11 -8 -5 6 3 10 9 15 12 12 3 -3 0 -11 -7 -18z m49 -6 c0
-12 -26 -32 -33 -25 -9 10 4 34 19 34 8 0 14 -4 14 -9z m975 -72 c10 -44 22
-82 27 -85 10 -7 10 -44 0 -44 -5 0 -19 18 -31 41 -24 42 -42 169 -25 169 5 0
18 -36 29 -81z m-975 31 c0 -5 -5 -10 -11 -10 -5 0 -7 5 -4 10 3 6 8 10 11 10
2 0 4 -4 4 -10z m875 -48 c-9 -9 -25 11 -25 31 1 21 1 21 15 -3 7 -14 12 -27
10 -28z m142 -14 c-3 -8 -6 -5 -6 6 -1 11 2 17 5 13 3 -3 4 -12 1 -19z m-2674
-45 c4 -3 2 -12 -4 -19 -8 -10 -5 -19 10 -36 12 -12 19 -28 16 -36 -3 -7 -5
-18 -5 -23 0 -18 -27 -9 -48 16 -12 14 -22 29 -22 34 0 5 -6 14 -14 20 -25 21
-8 51 28 51 18 0 36 -3 39 -7z m-156 -17 c-3 -7 -1 -18 3 -22 5 -5 5 -15 1
-23 -11 -16 -61 -2 -88 24 -21 22 -3 35 51 35 28 0 37 -4 33 -14z m-290 -20
c-3 -8 -11 -34 -17 -58 -6 -24 -27 -82 -46 -130 -19 -49 -34 -94 -34 -102 0
-17 -11 -25 -40 -31 -25 -5 -35 11 -20 30 6 8 9 18 6 23 -7 12 35 154 67 223
22 48 28 55 57 57 25 2 31 -1 27 -12z m3529 -27 c-9 -19 -15 -29 -16 -22 0 18
20 66 25 61 3 -3 -1 -20 -9 -39z m-3316 -19 c30 -16 65 -50 50 -50 -5 0 -10
-10 -10 -22 0 -37 12 -69 24 -66 14 4 106 -50 106 -61 0 -5 9 -11 21 -14 17
-5 20 -2 15 16 -6 26 18 62 34 52 9 -5 9 -10 1 -18 -6 -6 -11 -21 -11 -34 0
-13 -7 -26 -16 -30 -12 -4 -13 -7 -3 -14 8 -4 10 -12 5 -16 -4 -4 -16 3 -27
16 -10 13 -19 18 -19 11 0 -7 -8 -9 -21 -5 -14 5 -19 3 -15 -4 5 -7 -19 -9
-81 -5 -146 8 -215 7 -282 -4 -36 -7 -66 -10 -67 -9 -4 3 59 129 87 177 22 37
36 51 81 86 30 23 77 21 128 -6z m2555 12 c-3 -3 -11 0 -18 7 -9 10 -8 11 6 5
10 -3 15 -9 12 -12z m89 -44 c-11 -17 -24 -6 -24 19 0 26 1 26 14 8 8 -11 12
-23 10 -27z m-1624 -22 c0 -2 -8 -10 -17 -17 -16 -13 -17 -12 -4 4 13 16 21
21 21 13z m-79 -63 c-9 -18 -82 -89 -130 -128 l-24 -20 16 26 c10 14 15 28 12
30 -3 3 12 21 32 40 20 19 32 27 28 19 -5 -8 8 0 28 18 42 36 52 40 38 15z
m2399 2 c0 -8 -2 -15 -4 -15 -2 0 -6 7 -10 15 -3 8 -1 15 4 15 6 0 10 -7 10
-15z m-153 -57 c-3 -8 -6 -5 -6 6 -1 11 2 17 5 13 3 -3 4 -12 1 -19z m-2927
-48 c0 -5 -5 -10 -11 -10 -5 0 -7 5 -4 10 3 6 8 10 11 10 2 0 4 -4 4 -10z
m-452 -65 c12 -4 22 -12 22 -17 0 -15 -22 -52 -39 -65 -9 -7 -11 -13 -6 -13 6
0 3 -5 -5 -11 -11 -8 -12 -12 -3 -16 8 -3 11 -15 7 -31 l-5 -27 14 24 c11 18
16 20 20 10 4 -10 6 -10 6 3 1 16 29 32 47 26 5 -1 19 3 31 10 19 11 22 9 32
-18 5 -17 16 -30 24 -30 8 0 17 -7 21 -15 7 -20 -10 -65 -26 -65 -7 0 -19 -10
-27 -21 -10 -17 -10 -23 0 -29 7 -5 18 -6 26 -3 7 3 31 -2 52 -11 l39 -15 59
77 c32 42 69 81 81 87 12 5 22 13 22 17 0 4 6 5 13 2 8 -3 20 2 27 11 16 19
34 20 26 0 -3 -8 -1 -15 4 -15 6 0 10 -11 10 -25 0 -14 4 -25 10 -25 6 0 6 -9
0 -25 -7 -20 -6 -25 5 -25 9 0 12 6 8 17 -4 10 -2 14 4 10 6 -4 10 -20 8 -37
-2 -34 -15 -54 -15 -25 0 10 -3 16 -6 12 -8 -8 15 -77 27 -77 5 0 9 -7 9 -15
0 -8 10 -25 21 -36 25 -25 33 -96 12 -91 -7 1 -13 -2 -13 -8 0 -5 5 -10 11
-10 5 0 7 -4 4 -10 -3 -5 3 -20 14 -32 12 -12 21 -30 21 -40 0 -10 4 -18 9
-18 6 0 8 9 6 20 -2 11 0 22 6 25 5 4 9 -1 9 -9 0 -23 21 -31 32 -12 5 9 13
14 19 11 5 -4 9 -1 9 4 0 6 5 11 10 11 7 0 7 -6 0 -20 -6 -11 -17 -20 -25 -20
-8 0 -15 -4 -15 -10 0 -5 -7 -10 -16 -10 -13 0 -15 -7 -10 -35 4 -22 3 -35 -4
-35 -5 0 -10 4 -10 10 0 5 -6 7 -14 4 -9 -3 -19 5 -28 23 -17 37 -44 38 -40 1
3 -28 -30 -93 -41 -81 -4 3 -7 1 -7 -5 0 -6 -12 -23 -27 -37 -15 -14 -23 -25
-16 -25 6 0 14 6 17 13 2 6 4 1 3 -13 -1 -17 3 -24 13 -22 10 1 9 -2 -4 -13
-11 -8 -30 -15 -43 -15 -21 0 -22 2 -13 21 7 11 9 23 6 27 -3 3 -6 0 -6 -8 0
-10 -4 -10 -17 1 -12 10 -15 11 -9 1 4 -7 3 -19 -4 -27 -8 -9 -8 -15 0 -20 8
-5 8 -11 -1 -21 -9 -11 -8 -14 4 -14 9 0 18 4 22 10 3 5 12 7 21 3 11 -4 9 -9
-12 -19 -14 -8 -30 -12 -34 -9 -5 3 -11 1 -15 -5 -3 -5 -1 -10 4 -10 29 0 0
-49 -31 -54 -8 -1 -24 -12 -36 -24 -13 -13 -28 -20 -35 -15 -8 5 -3 10 13 14
l25 7 -25 1 c-25 0 -83 -44 -92 -70 -3 -9 -20 -14 -44 -14 -33 0 -39 -3 -42
-23 -3 -18 -8 -21 -23 -17 -15 5 -22 1 -26 -14 -6 -23 -35 -36 -73 -32 -27 2
-69 -33 -56 -46 4 -4 11 -1 16 7 8 13 12 12 27 -3 17 -18 17 -19 -2 -17 -33 4
-46 1 -41 -9 3 -5 -1 -14 -9 -21 -8 -7 -13 -16 -10 -20 3 -4 -3 -7 -13 -6 -11
1 -17 -6 -17 -21 -1 -25 -25 -73 -37 -73 -5 0 -7 -4 -3 -9 3 -6 -1 -13 -8 -18
-20 -12 -50 -98 -45 -127 3 -14 0 -27 -6 -30 -7 -3 -5 -10 6 -18 12 -10 14
-18 7 -29 -8 -11 -12 -11 -16 -1 -2 6 -9 9 -14 6 -6 -3 -2 -12 8 -19 14 -10
21 -11 33 -2 13 10 13 10 1 -5 -7 -10 -11 -27 -8 -37 3 -14 1 -18 -9 -14 -8 3
-14 9 -14 14 0 4 -7 6 -15 3 -11 -5 -13 -10 -5 -19 8 -9 4 -11 -17 -8 -20 3
-24 2 -14 -5 17 -12 6 -52 -15 -52 -8 0 -14 -4 -14 -10 0 -5 7 -7 15 -4 21 8
20 -49 -1 -82 -13 -19 -14 -28 -5 -37 6 -6 11 -26 11 -45 0 -18 7 -40 15 -48
16 -17 20 -44 6 -44 -10 0 -26 -112 -23 -157 2 -18 -2 -33 -8 -33 -5 0 -10
-11 -10 -25 0 -23 2 -24 20 -15 17 9 20 8 20 -14 0 -13 7 -32 16 -40 8 -9 12
-16 7 -16 -4 0 -3 -4 4 -8 13 -8 21 -27 11 -27 -8 0 -43 -45 -51 -67 -9 -26 0
-22 33 14 26 29 30 30 30 13 1 -17 2 -18 8 -3 6 15 9 13 19 -8 10 -22 10 -24
-8 -19 -11 4 -19 2 -19 -4 0 -6 5 -10 12 -9 14 3 20 -80 6 -88 -4 -3 -8 12 -8
33 l-1 38 -13 -30 c-7 -16 -9 -31 -4 -33 4 -2 8 -10 8 -18 0 -8 7 -14 15 -14
8 0 15 -4 15 -10 0 -5 -5 -10 -11 -10 -6 0 -9 -9 -6 -20 3 -13 -1 -24 -13 -30
-22 -12 -34 -98 -16 -120 17 -21 21 -75 6 -65 -9 5 -10 1 -5 -14 3 -12 3 -21
-2 -20 -22 4 -23 -3 -4 -27 25 -32 28 -59 5 -50 -13 5 -15 0 -9 -36 4 -24 13
-47 19 -51 7 -6 5 -7 -6 -3 -20 6 -34 -10 -16 -17 7 -3 1 -6 -14 -6 -20 -1
-28 4 -28 16 0 13 -3 14 -12 5 -6 -6 -16 -8 -22 -4 -6 4 -29 14 -51 21 -22 7
-62 28 -90 45 -27 17 -61 37 -75 44 -80 40 -263 193 -431 361 -177 176 -214
217 -352 388 -32 39 -63 73 -69 75 -13 5 -1 48 14 48 15 0 122 53 126 62 2 4
9 8 15 8 7 0 50 27 96 60 47 34 94 60 108 60 13 0 32 4 42 10 33 17 140 146
143 172 2 14 8 32 14 39 6 8 14 22 17 32 4 9 13 17 22 17 8 0 15 8 15 18 0 10
14 32 30 50 17 18 30 37 30 41 0 5 12 17 26 27 53 39 68 54 53 55 -10 0 -11 2
-1 6 6 2 12 11 12 20 0 12 2 12 16 -2 15 -15 18 -15 35 1 11 9 19 14 19 9 0
-4 6 -2 14 4 11 9 15 8 21 -6 5 -10 7 -24 6 -30 -1 -7 3 -13 9 -13 5 0 10 -7
10 -16 0 -8 5 -12 10 -9 6 3 10 0 11 -7 0 -7 5 -2 10 12 6 13 8 34 4 47 -3 12
0 25 5 28 6 4 8 10 5 15 -3 5 -1 11 4 14 5 4 9 19 9 35 -1 16 6 37 15 45 14
15 16 14 22 -4 3 -11 16 -25 27 -31 20 -11 21 -17 15 -115 -5 -87 -3 -104 9
-104 8 0 14 5 14 11 0 5 -4 7 -10 4 -5 -3 -10 -2 -10 4 0 5 5 13 11 16 6 4 9
37 8 83 -3 93 -7 112 -24 112 -15 0 -27 38 -14 46 5 3 9 -3 9 -12 0 -36 19 2
22 44 2 26 8 42 16 42 7 0 12 -6 11 -12 -1 -7 -1 -27 0 -45 1 -24 5 -31 15
-27 11 4 13 17 10 43 -4 39 14 69 35 57 5 -4 9 16 9 49 0 30 5 62 12 70 7 8 9
15 4 15 -5 0 -1 5 9 11 14 8 16 19 12 59 -4 37 -2 52 11 65 12 11 19 13 24 5
4 -7 13 -2 24 14 23 37 40 32 21 -5 -9 -17 -14 -33 -11 -36 9 -10 58 48 52 62
-3 9 2 11 15 8 18 -5 18 -7 4 -23 -8 -9 -15 -25 -15 -35 0 -10 -3 -16 -6 -13
-7 8 -54 -36 -54 -51 0 -16 34 5 82 52 22 21 45 36 50 35 6 -2 12 -18 13 -36
2 -17 -1 -29 -6 -26 -5 3 -12 -2 -15 -10 -3 -9 -10 -13 -15 -10 -14 8 -31 -46
-20 -60 6 -7 8 -22 4 -34 -4 -16 -1 -22 11 -22 9 0 16 -6 16 -13 0 -7 10 -18
22 -26 20 -12 20 -14 4 -23 -12 -7 -22 -5 -34 4 -15 11 -16 11 -4 -3 7 -9 10
-24 6 -33 -3 -9 -1 -16 5 -16 6 0 11 5 11 11 0 5 4 7 10 4 6 -3 7 1 4 9 -4 10
-1 16 9 16 8 0 17 -6 20 -12 3 -10 9 -8 24 5 11 9 27 17 36 17 9 0 21 9 27 20
6 11 8 20 4 20 -3 0 -1 6 5 13 6 8 8 17 4 20 -3 4 1 22 10 39 29 60 57 128 57
138 0 5 -22 10 -49 10 -75 0 -148 41 -221 126 -32 37 -39 50 -95 159 -38 75
-48 107 -57 181 -13 105 -2 211 21 206 10 -2 12 5 9 23 -3 14 -1 28 4 31 5 3
7 12 4 20 -3 7 5 20 17 29 31 22 43 4 28 -42 -24 -78 -18 -168 16 -233 11 -22
13 -22 13 -5 0 11 -8 50 -17 87 -17 66 -17 71 2 145 19 73 22 78 50 83 33 6
49 5 83 -5z m385 -71 c-3 -8 -10 -14 -17 -14 -6 0 -4 -5 4 -10 13 -8 12 -10
-3 -10 -10 0 -15 -5 -12 -10 7 -12 -80 -54 -94 -45 -5 3 -12 -3 -14 -12 -4
-15 -5 -15 -6 2 -1 12 12 31 31 45 18 14 43 37 57 51 26 27 64 29 54 3z m67
-4 c0 -5 -4 -10 -10 -10 -5 0 -10 5 -10 10 0 6 5 10 10 10 6 0 10 -4 10 -10z
m-980 -55 c0 -8 -4 -15 -10 -15 -5 0 -10 7 -10 15 0 8 5 15 10 15 6 0 10 -7
10 -15z m744 -30 c3 -8 1 -15 -4 -15 -6 0 -10 7 -10 15 0 8 2 15 4 15 2 0 6
-7 10 -15z m853 -175 c3 -11 9 -17 14 -14 5 3 9 0 9 -7 0 -6 8 -9 20 -6 13 3
20 0 20 -9 0 -17 27 -19 32 -2 2 6 10 8 17 4 7 -5 10 -14 7 -22 -3 -8 0 -13 7
-11 7 1 11 -6 11 -15 -1 -10 2 -16 6 -13 5 3 11 1 15 -5 4 -6 10 -8 15 -5 4 3
19 -10 33 -28 13 -17 45 -54 71 -82 25 -27 44 -55 41 -62 -2 -7 2 -10 11 -6
13 5 11 10 -9 32 -13 14 -33 40 -43 56 l-19 30 34 -30 c18 -16 43 -41 55 -55
11 -14 37 -41 57 -60 53 -52 161 -191 154 -199 -4 -3 -16 5 -27 19 -11 14 -25
24 -30 22 -5 -1 -7 2 -4 6 6 10 -61 102 -74 102 -18 0 -3 -33 27 -57 37 -30
45 -50 12 -33 -37 20 -30 5 26 -55 30 -32 51 -63 48 -69 -10 -15 -10 -55 -1
-50 4 3 8 14 8 24 0 28 26 15 45 -23 20 -40 19 -47 -5 -47 -20 0 -24 10 -20
40 1 13 -1 12 -15 -1 -20 -20 -15 -43 20 -83 31 -36 31 -41 0 -91 -25 -40 -31
-70 -17 -78 4 -2 2 -3 -4 -1 -18 4 -29 -8 -52 -55 -16 -33 -19 -48 -10 -58 8
-10 6 -13 -8 -14 -11 -1 -23 -1 -28 0 -4 1 -5 -15 -2 -35 5 -24 4 -34 -3 -29
-20 12 -12 -45 14 -98 13 -29 39 -68 57 -86 26 -27 28 -32 10 -22 -13 7 -26
10 -29 7 -3 -3 -15 0 -27 6 -32 18 -78 19 -72 2 3 -8 2 -14 -3 -14 -5 0 -9 -6
-8 -12 1 -36 -4 -47 -18 -42 -8 3 -17 0 -20 -8 -4 -10 -15 -13 -32 -10 -20 4
-24 2 -18 -9 6 -11 5 -11 -5 -2 -9 9 -19 9 -33 2 -14 -8 -18 -8 -13 0 4 6 2
11 -3 11 -6 0 -11 -4 -11 -10 0 -5 -18 -8 -40 -6 -22 2 -40 -1 -40 -6 0 -6 -7
-8 -15 -4 -8 3 -15 1 -15 -4 0 -5 -10 -12 -22 -15 -13 -4 -36 -17 -53 -29 -16
-12 -41 -26 -55 -33 -69 -30 -74 -31 -102 -15 -28 16 -37 32 -18 32 18 0 11
20 -7 21 -11 0 -13 3 -5 6 6 2 12 11 12 19 0 8 5 14 10 14 21 0 9 15 -12 16
-13 1 -32 4 -43 7 -11 3 -24 6 -28 6 -5 1 -6 5 -3 10 8 12 -20 22 -39 15 -8
-4 -15 -12 -15 -19 0 -7 -16 -29 -35 -49 -19 -21 -35 -42 -35 -47 0 -5 -4 -9
-10 -9 -5 0 -10 9 -10 20 0 11 5 20 10 20 6 0 10 5 10 10 0 21 -19 8 -29 -20
-11 -32 -41 -41 -41 -12 0 14 -2 15 -10 2 -8 -13 -10 -12 -10 3 0 11 9 21 21
24 11 3 18 11 15 19 -3 7 -1 16 4 19 13 8 13 35 0 35 -5 0 -12 -11 -16 -25 -7
-28 -19 -33 -27 -11 -3 8 1 20 9 27 10 8 11 15 4 24 -8 10 -8 15 1 21 6 4 16
0 21 -10 14 -25 31 -19 26 9 -3 14 -1 28 3 31 5 3 9 0 9 -6 0 -6 5 -8 11 -4 8
4 6 10 -6 17 -13 7 -20 5 -27 -7 -13 -24 -37 -21 -31 4 4 15 2 19 -10 14 -22
-8 -57 14 -57 36 0 11 -6 20 -12 20 -7 0 -5 5 5 11 9 6 17 22 17 37 0 15 6 36
14 47 11 17 11 22 0 32 -7 7 -15 9 -19 4 -3 -5 0 -11 6 -13 14 -5 1 -36 -20
-43 -9 -2 -21 -15 -26 -27 -6 -13 -21 -25 -34 -26 -15 -2 -21 0 -17 7 4 6 16
11 27 11 12 0 19 7 19 18 0 22 27 79 41 87 5 4 7 11 4 16 -4 5 -1 17 4 26 9
16 11 15 11 -7 l1 -25 10 24 c5 13 7 26 4 29 -16 16 -59 10 -92 -13 -47 -31
-50 -31 -51 3 0 22 6 30 29 39 36 14 39 1 3 -16 -15 -6 -24 -14 -21 -17 3 -3
13 -1 24 5 10 5 26 12 36 15 10 3 16 10 13 15 -3 5 0 21 8 36 8 15 12 34 9 43
-4 10 -2 13 5 8 6 -3 16 3 22 14 15 29 21 62 9 55 -5 -4 -9 -14 -9 -23 0 -9
-5 -24 -11 -32 -8 -12 -9 -10 -4 8 4 13 2 22 -4 22 -6 0 -11 -8 -11 -19 0 -10
-6 -24 -14 -30 -8 -7 -17 -22 -20 -35 -8 -31 -59 -51 -77 -30 -10 12 -14 12
-20 2 -4 -7 -11 -9 -15 -5 -4 3 -1 13 6 22 7 8 10 22 6 30 -3 8 -2 15 2 15 12
0 92 81 92 94 0 8 -2 8 -8 0 -7 -11 -52 -38 -64 -39 -3 0 -10 -3 -14 -7 -17
-18 -22 -6 -9 25 8 19 20 31 29 29 11 -2 14 2 10 13 -3 8 -10 12 -15 9 -5 -3
-10 1 -10 8 -2 18 -1 20 7 43 7 20 7 20 -14 1 -22 -19 -22 -19 -22 1 0 11 8
28 19 37 10 9 19 29 19 43 0 14 7 30 15 35 9 5 14 15 11 23 -4 9 0 15 10 15 9
0 16 -7 16 -15 0 -16 25 -21 35 -6 3 5 -4 13 -16 16 -11 4 -18 13 -15 20 2 7
-2 16 -11 19 -12 5 -13 9 -3 22 7 8 20 12 28 9 17 -6 72 15 72 28 0 5 5 5 10
2 6 -3 10 -1 10 5 0 6 -11 8 -27 4 -45 -10 -47 -10 -51 11 -5 26 -22 44 -22
23 0 -8 -7 -21 -15 -28 -27 -22 -18 16 11 47 14 15 23 22 19 15 -11 -21 12
-39 44 -34 29 4 46 25 35 43 -3 5 2 9 11 9 9 0 24 13 33 30 9 16 22 30 28 30
11 0 28 30 39 68 4 12 11 20 16 17 5 -4 9 4 9 16 0 20 24 48 43 49 4 0 7 -12
7 -27 l1 -28 13 30 c7 17 17 28 22 25 5 -3 11 8 14 24 7 41 30 46 30 7 0 -17
5 -31 10 -31 6 0 10 6 10 13 0 9 2 9 8 -1 15 -22 68 -32 89 -15 17 13 16 14
-7 9 -47 -10 -57 14 -36 84 7 23 60 70 79 70 5 0 11 -9 14 -20z m-427 -130 c0
-5 8 -10 17 -10 9 0 14 -3 10 -6 -8 -8 -47 5 -47 17 0 5 5 9 10 9 6 0 10 -4
10 -10z m10 -69 c0 -6 -4 -13 -10 -16 -5 -3 -10 1 -10 9 0 9 5 16 10 16 6 0
10 -4 10 -9z m1190 -51 c0 -5 -7 -7 -15 -4 -8 4 -15 8 -15 10 0 2 7 4 15 4 8
0 15 -4 15 -10z m218 -10 c15 -1 15 -2 -2 -11 -14 -9 -22 -7 -35 6 -15 17 -15
17 2 11 10 -3 26 -6 35 -6z m2 -80 c0 -5 -2 -10 -4 -10 -3 0 -8 5 -11 10 -3 6
-1 10 4 10 6 0 11 -4 11 -10z m-1550 -120 c0 -5 -5 -10 -11 -10 -5 0 -7 5 -4
10 3 6 8 10 11 10 2 0 4 -4 4 -10z m1255 -70 c3 -5 -1 -10 -9 -10 -9 0 -16 5
-16 10 0 6 4 10 9 10 6 0 13 -4 16 -10z m162 -5 c38 -16 73 -12 73 8 0 6 7 1
16 -11 8 -12 21 -22 27 -22 7 0 21 -7 32 -16 17 -13 18 -16 5 -24 -13 -8 -12
-10 3 -10 9 0 17 -4 17 -10 0 -5 -4 -10 -9 -10 -15 0 -200 91 -207 101 -7 13
1 11 43 -6z m-1890 -32 c-3 -10 -5 -4 -5 12 0 17 2 24 5 18 2 -7 2 -21 0 -30z
m-272 17 c3 -5 1 -10 -4 -10 -6 0 -11 5 -11 10 0 6 2 10 4 10 3 0 8 -4 11 -10z
m5 -24 c0 -3 -4 -8 -10 -11 -5 -3 -10 -1 -10 4 0 6 5 11 10 11 6 0 10 -2 10
-4z m1931 -13 c31 -18 38 -33 16 -33 -8 0 -24 11 -37 25 -27 29 -20 32 21 8z
m-1271 -23 c0 -5 -2 -10 -4 -10 -3 0 -8 5 -11 10 -3 6 -1 10 4 10 6 0 11 -4
11 -10z m-11 -47 c-6 -15 -15 -34 -22 -41 -9 -12 -12 -11 -17 4 -5 12 2 25 19
41 33 28 33 28 20 -4z m1315 -14 c-8 -13 -24 -1 -24 18 0 13 3 13 15 3 8 -7
12 -16 9 -21z m-1707 -21 c-3 -8 -6 -5 -6 6 -1 11 2 17 5 13 3 -3 4 -12 1 -19z
m66 3 c3 -13 1 -18 -9 -14 -7 2 -10 11 -7 19 7 19 10 18 16 -5z m2117 -31 c50
-25 83 -50 66 -50 -8 0 -141 80 -133 80 4 0 34 -13 67 -30z m-2170 -10 c0 -5
-2 -10 -4 -10 -3 0 -8 5 -11 10 -3 6 -1 10 4 10 6 0 11 -4 11 -10z m1652 -22
c-7 -7 -12 -8 -12 -2 0 6 3 14 7 17 3 4 9 5 12 2 2 -3 -1 -11 -7 -17z m510
-12 c9 -16 8 -16 -21 -1 -37 18 -38 22 -10 20 12 -1 26 -9 31 -19z m-462 -21
c-6 -8 -18 -11 -26 -8 -22 8 -17 18 11 19 20 2 23 -1 15 -11z m525 -18 c20
-19 20 -19 -12 -3 -36 18 -40 23 -20 23 6 0 21 -9 32 -20z m-2185 -17 c0 -5
-5 -10 -11 -10 -5 0 -7 5 -4 10 3 6 8 10 11 10 2 0 4 -4 4 -10z m2370 -172 c0
-5 -4 -6 -10 -3 -12 8 -70 -35 -70 -52 0 -7 -5 -13 -11 -13 -5 0 -7 5 -4 10 3
6 0 10 -7 10 -8 0 -9 3 -3 8 6 4 17 21 26 37 9 17 21 29 27 28 7 -2 12 2 12 9
0 6 9 3 20 -7 11 -10 20 -22 20 -27z m660 38 c0 -3 -4 -8 -10 -11 -5 -3 -10
-1 -10 4 0 6 5 11 10 11 6 0 10 -2 10 -4z m-4793 -58 c-19 -12 -27 2 -14 22
11 18 12 19 18 2 3 -9 1 -20 -4 -24z m2197 -43 c-9 -14 -19 -24 -21 -21 -7 7
16 46 28 46 5 0 2 -11 -7 -25z m56 -3 c0 -10 -22 -32 -32 -32 -5 0 -3 9 4 20
13 20 28 27 28 12z m2330 -7 c38 -8 46 -12 37 -21 -3 -3 -41 4 -84 15 -63 17
-69 20 -33 17 25 -2 61 -7 80 -11z m-3067 -15 c-6 -24 -23 -37 -23 -18 0 12
18 38 26 38 1 0 0 -9 -3 -20z m30 -70 c-5 -20 -21 -36 -28 -28 -5 4 23 48 30
48 2 0 1 -9 -2 -20z m3133 5 c25 -19 6 -19 -37 0 -32 13 -32 14 -8 15 14 0 34
-7 45 -15z m-3173 -15 c-3 -11 -9 -20 -14 -20 -10 0 -12 24 -2 33 13 13 21 7
16 -13z m3281 -15 c29 -12 78 -55 62 -55 -15 0 -136 64 -136 72 0 10 22 5 74
-17z m-3254 -70 c0 -9 -6 -12 -15 -9 -8 4 -15 10 -15 15 0 5 7 9 15 9 8 0 15
-7 15 -15z m750 5 c0 -5 -4 -10 -10 -10 -5 0 -10 5 -10 10 0 6 5 10 10 10 6 0
10 -4 10 -10z m27 -38 c0 -10 -7 -19 -14 -19 -15 0 -15 0 -7 21 8 22 23 20 21
-2z m-2677 -22 c0 -5 -2 -10 -4 -10 -3 0 -8 5 -11 10 -3 6 -1 10 4 10 6 0 11
-4 11 -10z m3657 4 c13 -4 20 -11 16 -17 -4 -6 -1 -7 6 -3 7 5 29 -3 52 -19
30 -19 39 -31 34 -45 -3 -10 -2 -21 3 -24 5 -3 9 -18 10 -33 0 -21 -8 -33 -31
-48 -18 -12 -32 -29 -32 -40 0 -13 -7 -21 -20 -21 -11 -1 -29 -5 -40 -9 -16
-7 -18 -6 -7 6 6 7 12 24 12 38 0 23 -1 24 -20 6 -16 -15 -22 -15 -35 -5 -10
8 -15 9 -15 2 0 -6 -7 -9 -15 -6 -8 4 -15 15 -15 25 0 10 -3 18 -7 18 -5 -1
-11 0 -15 1 -5 1 -14 3 -20 4 -7 0 -14 10 -17 21 -4 24 -21 37 -38 30 -18 -6
-16 3 7 32 11 14 20 20 20 13 0 -9 7 -7 22 6 12 10 18 14 15 7 -5 -8 0 -11 14
-10 12 1 24 9 26 18 3 10 18 23 34 29 16 7 26 16 23 21 -6 10 2 11 33 3z
m-767 -68 c0 -8 -12 -28 -26 -45 -14 -17 -20 -31 -14 -31 10 0 10 -3 0 -15 -7
-8 -16 -12 -21 -10 -10 7 21 75 34 75 5 0 7 6 4 14 -5 12 1 19 21 25 1 1 2 -5
2 -13z m79 -27 c-16 -10 -23 -4 -14 10 3 6 11 8 17 5 6 -4 5 -9 -3 -15z
m-1178 -26 c-10 -17 -10 -16 -11 3 0 23 13 41 18 25 2 -6 -1 -18 -7 -28z
m1099 -13 c0 -5 -5 -10 -11 -10 -5 0 -7 5 -4 10 3 6 8 10 11 10 2 0 4 -4 4
-10z m-2914 -36 c-10 -14 -20 -23 -23 -21 -6 6 30 57 36 51 2 -2 -4 -15 -13
-30z m2709 27 c3 -5 1 -12 -5 -16 -5 -3 -10 1 -10 9 0 18 6 21 15 7z m271 -3
c4 -6 3 -8 -4 -4 -5 3 -12 0 -15 -6 -2 -7 -8 -10 -12 -6 -8 8 2 28 15 28 5 0
12 -5 16 -12z m-156 -62 c0 -2 -7 -9 -15 -16 -13 -11 -14 -10 -9 4 5 14 24 23
24 12z m40 -6 c0 -5 -2 -10 -4 -10 -3 0 -8 5 -11 10 -3 6 -1 10 4 10 6 0 11
-4 11 -10z m190 -3 c-27 -15 -36 -14 -25 2 3 6 16 11 28 11 21 0 21 -1 -3 -13z
m125 -357 c-11 -5 -18 -9 -15 -10 25 -7 40 -7 40 2 0 6 7 7 16 4 40 -15 67
-19 60 -8 -6 11 13 11 66 3 4 0 4 -8 1 -18 -4 -11 -3 -14 5 -9 7 4 22 -2 34
-13 12 -12 31 -21 43 -21 20 0 34 -10 138 -100 29 -25 66 -55 82 -66 30 -22
105 -48 105 -37 0 11 -35 32 -53 33 -34 0 -77 39 -77 69 0 20 -7 31 -24 39
-31 14 -58 54 -50 75 8 22 30 28 75 21 29 -5 39 -11 39 -25 0 -22 1 -22 50 -8
33 10 42 9 64 -7 14 -11 26 -25 26 -33 0 -9 8 -11 24 -7 16 4 32 -1 47 -13 21
-17 22 -21 10 -50 -8 -18 -33 -44 -63 -63 l-49 -32 46 -14 c30 -10 45 -20 45
-32 0 -12 8 -17 26 -17 44 0 50 -17 24 -72 -13 -28 -27 -48 -32 -45 -4 3 -8
-7 -8 -22 0 -15 -13 -49 -30 -76 -16 -26 -30 -57 -30 -68 0 -11 -7 -20 -15
-20 -8 0 -15 -9 -15 -19 0 -11 -4 -23 -10 -26 -5 -3 -21 -28 -34 -55 -14 -28
-31 -57 -38 -65 -7 -9 -17 -21 -23 -28 -5 -7 -10 -18 -11 -24 -1 -7 -2 -24 -2
-38 -2 -32 -20 -32 -28 0 -5 20 -13 25 -35 25 -30 0 -32 -8 -14 -67 2 -7 0
-15 -5 -18 -6 -4 -10 3 -10 14 0 12 -4 21 -10 21 -5 0 -10 7 -10 16 0 17 -27
43 -44 44 -4 0 -6 -7 -2 -15 3 -8 3 -15 0 -15 -10 0 -34 28 -34 39 0 6 -4 11
-10 11 -5 0 -10 -7 -10 -15 0 -8 -4 -15 -9 -15 -5 0 -16 -3 -25 -6 -12 -5 -16
0 -16 17 0 19 -2 21 -9 9 -6 -8 -8 -17 -5 -21 5 -9 -17 -59 -26 -59 -4 0 -7
12 -7 28 -1 80 -6 114 -14 101 -7 -12 -9 -12 -9 0 0 11 -4 9 -15 -5 -19 -26
-19 -42 3 -47 9 -2 0 -4 -21 -4 -30 -1 -36 2 -27 12 14 16 7 71 -9 67 -6 -1
-11 5 -11 13 0 8 -7 15 -15 15 -8 0 -15 7 -15 15 0 8 -4 15 -8 15 -11 0 -36
51 -33 65 1 5 -6 2 -17 -8 -10 -9 -23 -17 -29 -17 -14 0 -27 46 -24 85 l2 30
-16 -22 c-23 -32 -35 -29 -25 7 8 27 6 30 -13 30 -19 0 -22 6 -25 44 -1 25 2
47 8 51 5 3 10 13 10 22 0 14 -2 14 -19 -1 -29 -26 -44 -11 -26 25 13 25 13
29 1 29 -8 0 -17 -6 -19 -12 -3 -8 -6 -9 -6 -2 -1 6 10 28 24 48 21 31 23 40
12 56 -6 11 -15 20 -20 20 -4 0 -5 -5 -1 -11 5 -8 1 -8 -13 0 -11 6 -24 7 -28
3 -4 -4 -5 0 -3 8 3 8 11 14 17 12 7 -1 10 2 6 8 -4 6 0 22 9 35 22 33 20 38
-8 20 -16 -11 -26 -13 -31 -6 -3 6 1 11 9 11 9 0 16 5 16 11 0 7 10 9 25 6 14
-2 23 -2 21 1 -3 2 -1 13 4 22 8 15 6 17 -13 12 -20 -5 -21 -4 -7 13 14 17 13
18 -7 13 -13 -4 -23 -5 -23 -3 0 2 16 22 35 45 19 23 33 46 30 50 -7 11 69 23
94 15 11 -3 22 -1 26 5 3 5 14 10 23 9 14 0 13 -2 -3 -9z m355 -25 c-13 -16
-35 -21 -26 -6 4 5 0 12 -6 14 -7 3 0 6 16 6 24 1 27 -1 16 -14z m-48 -17 c-5
-5 -17 -6 -26 -2 -13 5 -14 9 -5 14 16 11 43 0 31 -12z m-1623 -405 c-1 -38
-1 -38 -9 -9 -8 27 -6 46 6 46 2 0 4 -17 3 -37z m59 -17 c-7 -8 -15 -12 -17
-11 -5 6 10 25 20 25 5 0 4 -6 -3 -14z m-48 -180 c0 -3 -4 -8 -10 -11 -5 -3
-10 -1 -10 4 0 6 5 11 10 11 6 0 10 -2 10 -4z m1470 -430 c0 -3 -4 -8 -10 -11
-5 -3 -10 -1 -10 4 0 6 5 11 10 11 6 0 10 -2 10 -4z"/>
<path d="M5010 5496 c0 -7 61 -66 69 -66 19 0 -3 52 -26 61 -25 9 -43 12 -43
5z"/>
<path d="M5026 5402 c-7 -12 22 -38 31 -28 4 3 0 14 -9 22 -9 10 -18 12 -22 6z"/>
<path d="M5251 4414 c0 -11 3 -14 6 -6 3 7 2 16 -1 19 -3 4 -6 -2 -5 -13z"/>
<path d="M5330 4275 c0 -19 5 -35 10 -35 6 0 10 16 10 35 0 19 -4 35 -10 35
-5 0 -10 -16 -10 -35z"/>
<path d="M2644 3684 c18 -17 26 -18 26 -1 0 7 -9 13 -20 14 -18 2 -18 0 -6
-13z"/>
<path d="M2540 3310 c0 -5 5 -10 10 -10 6 0 10 5 10 10 0 6 -4 10 -10 10 -5 0
-10 -4 -10 -10z"/>
<path d="M1731 2844 c0 -11 3 -14 6 -6 3 7 2 16 -1 19 -3 4 -6 -2 -5 -13z"/>
<path d="M1680 2586 c0 -20 5 -36 10 -36 6 0 10 13 10 29 0 17 -4 33 -10 36
-6 4 -10 -8 -10 -29z"/>
<path d="M1685 2530 c-3 -5 -2 -18 3 -27 11 -20 0 -111 -17 -157 -18 -46 -5
-42 19 5 22 43 44 152 28 143 -4 -3 -8 4 -8 15 0 23 -16 36 -25 21z"/>
<path d="M2895 3620 c-3 -5 -1 -10 4 -10 6 0 11 5 11 10 0 6 -2 10 -4 10 -3 0
-8 -4 -11 -10z"/>
<path d="M2755 3380 c3 -5 12 -7 20 -3 21 7 19 13 -6 13 -11 0 -18 -4 -14 -10z"/>
<path d="M2706 3305 c-3 -9 0 -15 9 -15 9 0 12 6 9 15 -4 8 -7 15 -9 15 -2 0
-5 -7 -9 -15z"/>
<path d="M2620 3200 c-8 -5 -12 -11 -10 -14 3 -2 14 2 24 10 22 15 10 19 -14
4z"/>
<path d="M2795 2700 c-3 -5 -1 -10 4 -10 6 0 11 5 11 10 0 6 -2 10 -4 10 -3 0
-8 -4 -11 -10z"/>
<path d="M2795 2630 c-3 -5 -1 -10 4 -10 6 0 11 5 11 10 0 6 -2 10 -4 10 -3 0
-8 -4 -11 -10z"/>
<path d="M2720 2610 c-8 -5 -10 -10 -5 -10 6 0 17 5 25 10 8 5 11 10 5 10 -5
0 -17 -5 -25 -10z"/>
<path d="M2885 2610 c-3 -5 -1 -10 4 -10 6 0 11 5 11 10 0 6 -2 10 -4 10 -3 0
-8 -4 -11 -10z"/>
<path d="M3010 2590 c0 -5 5 -10 10 -10 6 0 10 5 10 10 0 6 -4 10 -10 10 -5 0
-10 -4 -10 -10z"/>
<path d="M2982 2570 c-7 -11 -19 -20 -28 -20 -8 0 -12 -4 -9 -10 3 -5 -4 -11
-17 -11 -20 -1 -21 -2 -3 -6 11 -3 25 -9 32 -14 7 -7 13 -5 16 3 4 9 12 6 26
-11 17 -19 21 -20 21 -7 0 10 5 14 10 11 6 -3 10 1 10 10 0 11 -5 15 -14 12
-8 -3 -20 1 -27 9 -10 13 -10 17 2 24 9 6 11 12 4 19 -7 7 -14 4 -23 -9z"/>
<path d="M2973 2495 c-8 -9 -9 -16 -3 -20 6 -3 13 1 16 10 9 21 2 26 -13 10z"/>
<path d="M3030 2450 c6 -11 15 -18 21 -14 6 4 6 11 -2 20 -17 21 -31 17 -19
-6z"/>
<path d="M2830 2420 c0 -5 5 -10 10 -10 6 0 10 5 10 10 0 6 -4 10 -10 10 -5 0
-10 -4 -10 -10z"/>
<path d="M3455 1580 c-3 -5 -1 -10 4 -10 6 0 11 5 11 10 0 6 -2 10 -4 10 -3 0
-8 -4 -11 -10z"/>
<path d="M3380 1546 c7 -7 14 -6 21 1 9 9 7 12 -9 10 -14 -1 -18 -5 -12 -11z"/>
<path d="M3407 1535 c-15 -13 -27 -27 -26 -30 3 -19 -13 -27 -65 -32 -40 -4
-53 -9 -43 -15 23 -12 77 -17 77 -6 0 5 16 16 36 24 28 12 39 13 44 3 4 -6 12
-9 18 -5 6 3 13 3 16 -2 3 -5 -10 -15 -29 -22 -37 -14 -38 -31 -2 -25 20 4 21
3 4 -9 -16 -12 -16 -14 -1 -20 25 -9 64 -7 64 4 0 6 6 10 13 10 13 0 18 -83 5
-96 -5 -4 -8 -12 -8 -18 0 -6 8 -1 18 10 21 27 59 37 66 18 3 -7 12 -11 21 -8
11 4 15 -1 16 -17 1 -17 3 -19 6 -6 2 9 10 17 18 17 7 0 16 7 19 16 3 8 2 12
-4 9 -6 -3 -10 -1 -10 5 0 7 9 14 21 17 15 4 20 12 16 29 -2 13 1 22 7 21 15
-3 25 -30 15 -42 -4 -6 0 -20 9 -33 17 -22 17 -21 19 26 3 60 -7 75 -46 75
-19 0 -31 5 -31 14 0 8 -12 13 -31 13 -22 0 -32 6 -36 19 -3 13 -11 17 -24 14
-13 -4 -19 0 -19 12 0 17 -1 17 -20 0 -17 -15 -24 -16 -49 -5 -16 6 -34 9 -39
6 -6 -3 -8 2 -5 14 3 12 0 20 -6 20 -7 0 -9 5 -6 10 10 15 3 12 -28 -15z m103
-79 c0 -3 -4 -8 -10 -11 -5 -3 -10 -1 -10 4 0 6 5 11 10 11 6 0 10 -2 10 -4z"/>
<path d="M3475 1543 c-18 -14 -18 -15 -2 -9 10 3 23 6 28 6 5 0 9 5 9 10 0 14
-12 12 -35 -7z"/>
<path d="M3626 1233 c-6 -14 -5 -15 5 -6 7 7 10 15 7 18 -3 3 -9 -2 -12 -12z"/>
<path d="M3808 6133 c7 -3 16 -2 19 1 4 3 -2 6 -13 5 -11 0 -14 -3 -6 -6z"/>
<path d="M5450 5176 c0 -9 -4 -16 -10 -16 -5 0 -10 5 -10 12 0 6 -3 8 -7 4 -5
-4 -1 -13 8 -19 9 -7 17 -16 18 -22 4 -29 14 -45 27 -45 8 0 12 -5 9 -11 -4
-6 2 -19 13 -30 12 -11 23 -15 27 -9 3 6 1 10 -5 10 -7 0 -10 6 -7 13 6 16
-17 71 -43 104 -15 19 -20 21 -20 9z"/>
<path d="M5526 4985 c4 -8 8 -15 10 -15 2 0 4 7 4 15 0 8 -4 15 -10 15 -5 0
-7 -7 -4 -15z"/>
<path d="M5580 4693 c0 -23 -4 -43 -10 -45 -5 -1 -7 -13 -4 -25 4 -13 10 -20
16 -17 5 3 6 14 3 25 -4 13 -2 19 9 19 19 0 30 -17 14 -22 -13 -5 -2 -28 13
-28 12 0 11 24 -3 55 -8 18 -14 22 -19 13 -5 -7 -7 1 -7 20 1 18 -2 35 -5 39
-4 3 -7 -12 -7 -34z"/>
<path d="M4510 4487 c67 -35 216 -81 233 -70 12 7 -67 42 -106 46 -18 2 -41 8
-52 14 -11 6 -38 13 -60 17 -38 6 -39 6 -15 -7z"/>
<path d="M4050 4441 c0 -5 6 -11 13 -14 6 -2 0 -8 -15 -12 -18 -5 -28 -14 -28
-26 0 -10 -5 -19 -11 -19 -5 0 -7 -5 -4 -10 9 -15 25 -2 25 22 0 14 5 18 15
14 9 -3 23 -1 33 4 9 6 35 17 57 25 l40 14 -43 -4 c-24 -3 -52 0 -63 5 -11 7
-19 7 -19 1z"/>
<path d="M4815 4380 c3 -5 8 -10 11 -10 2 0 4 5 4 10 0 6 -5 10 -11 10 -5 0
-7 -4 -4 -10z"/>
<path d="M3972 4325 c-7 -14 -19 -28 -27 -31 -8 -4 -15 -16 -15 -28 0 -18 4
-17 28 13 30 39 46 71 33 71 -4 0 -13 -11 -19 -25z"/>
<path d="M3738 4193 c-29 -7 -21 -23 11 -23 16 0 31 6 35 15 5 15 -9 18 -46 8z"/>
<path d="M652 3400 c-12 -20 -12 -21 13 -4 28 18 31 24 12 24 -7 0 -18 -9 -25
-20z"/>
<path d="M585 3350 c-3 -5 -2 -10 4 -10 5 0 13 5 16 10 3 6 2 10 -4 10 -5 0
-13 -4 -16 -10z"/>
<path d="M506 3274 c-23 -23 -20 -30 4 -9 11 10 20 20 20 22 0 7 -9 2 -24 -13z"/>
<path d="M457 3223 c-12 -12 -7 -22 8 -17 8 4 15 10 15 15 0 11 -14 12 -23 2z"/>
<path d="M396 3170 c-20 -18 -36 -38 -36 -45 0 -7 18 5 40 28 49 48 46 61 -4
17z"/>
<path d="M322 3073 c-12 -13 -27 -21 -33 -18 -10 7 -37 -19 -86 -82 -54 -69
-90 -119 -96 -136 -3 -9 -15 -20 -24 -24 -26 -9 -83 -65 -83 -81 0 -8 15 -2
39 17 47 38 51 38 51 5 0 -14 4 -23 10 -19 5 3 10 14 10 24 0 30 55 96 104
125 25 15 46 31 46 36 0 16 -13 12 -54 -16 -36 -24 -37 -25 -26 -4 17 32 110
123 158 155 23 15 42 29 42 30 0 2 -8 5 -18 7 -11 3 -27 -4 -40 -19z"/>
<path d="M4750 2825 c0 -8 5 -15 10 -15 6 0 10 7 10 15 0 8 -4 15 -10 15 -5 0
-10 -7 -10 -15z"/>
<path d="M5100 2275 c-7 -9 -11 -18 -8 -20 3 -3 11 1 18 10 7 9 11 18 8 20 -3
3 -11 -1 -18 -10z"/>
<path d="M5025 2259 c-11 -17 1 -21 15 -4 8 9 8 15 2 15 -6 0 -14 -5 -17 -11z"/>
<path d="M4530 2131 c0 -10 -3 -33 -6 -50 l-7 -31 44 4 c24 3 79 -2 122 -11
63 -13 85 -14 117 -4 48 14 53 28 7 23 -56 -6 -139 15 -206 52 -34 20 -65 36
-67 36 -2 0 -4 -8 -4 -19z"/>
</g>
</svg>
